<svg viewBox="0 0 200 210" xmlns="http://www.w3.org/2000/svg" width="200" height="210">
  <defs>
    <clipPath id="roundedClip">
      <rect x="0" y="0" width="200" height="200" rx="44" ry="44"/>
    </clipPath>
  </defs>

  <!-- Background: flat black -->
  <rect x="0" y="0" width="200" height="200" rx="44" ry="44" fill="#111111" style="fill:rgb(17, 17, 17);stroke:none;color:rgb(0, 0, 0);stroke-width:1px;stroke-linecap:butt;stroke-linejoin:miter;opacity:1;font-family:&quot;Anthropic Sans&quot;, -apple-system, &quot;system-ui&quot;, &quot;Segoe UI&quot;, sans-serif;font-size:16px;font-weight:400;text-anchor:start;dominant-baseline:auto"/>

  <!-- Top S-shape -->
  <path d="M 44 62&#10;       C 44 52, 52 44, 80 44&#10;       L 148 44&#10;       C 168 44, 174 52, 174 62&#10;       C 174 72, 166 80, 148 80&#10;       L 86 80&#10;       C 74 80, 68 84, 68 94" fill="none" stroke="white" stroke-width="22" stroke-linecap="round" stroke-linejoin="round" style="fill:none;stroke:rgb(255, 255, 255);color:rgb(0, 0, 0);stroke-width:22px;stroke-linecap:round;stroke-linejoin:round;opacity:1;font-family:&quot;Anthropic Sans&quot;, -apple-system, &quot;system-ui&quot;, &quot;Segoe UI&quot;, sans-serif;font-size:16px;font-weight:400;text-anchor:start;dominant-baseline:auto"/>

  <!-- Bottom S-shape -->
  <path d="M 156 138&#10;       C 156 148, 148 156, 120 156&#10;       L 52 156&#10;       C 32 156, 26 148, 26 138&#10;       C 26 128, 34 120, 52 120&#10;       L 114 120&#10;       C 126 120, 132 116, 132 106" fill="none" stroke="white" stroke-width="22" stroke-linecap="round" stroke-linejoin="round" style="fill:none;stroke:rgb(255, 255, 255);color:rgb(0, 0, 0);stroke-width:22px;stroke-linecap:round;stroke-linejoin:round;opacity:1;font-family:&quot;Anthropic Sans&quot;, -apple-system, &quot;system-ui&quot;, &quot;Segoe UI&quot;, sans-serif;font-size:16px;font-weight:400;text-anchor:start;dominant-baseline:auto"/>
</svg>